# xmcd
#
# Track frame offsets: 
#        150
#        19751
#        35659
#        58865
#        82097
#        97009
#        119467
#        138937
#        157219
#        173091
#        197036
#        218916
#        234787
#        255479
#        276141
#        295308
#        311068
#        331732
#
# Disc length: 4662 seconds
#
# Revision: 1
# Processed by: cddbd v1.5.2PL0 Copyright (c) Steve Scherf et al.
# Submitted via: ExactAudioCopy v0.99pb4
#
DISCID=0a123412
DTITLE=Dionne Warwick - All The Love In The World [CD1)
DYEAR=2007
DGENRE=Soul
TTITLE0=Heartbreaker
TTITLE1=All The Love In The World
TTITLE2=Yours
TTITLE3=Deja Vu
TTITLE4=Easy Love
TTITLE5=Extravagant Geastures
TTITLE6=Flower Of Bahia (With Dori Caymmi)
TTITLE7=After You
TTITLE8=I Can't See Anything (But You)
TTITLE9=Got A Date
TTITLE10=Captives Of The Heart
TTITLE11=I'll Never Love This Way Again
TTITLE12=Love Power (With Jefferey Osborne)
TTITLE13=Moments Aren't Moments
TTITLE14=Night And Day (Jazz Version)
TTITLE15=No Night So Long
TTITLE16=Run To Me (With Barry Manilow)
TTITLE17=Some Changes Are For Good
EXTD=Dina Jalkanen, this is a nice Dionne WArwick album for free datab
EXTD=ase.
EXTT0=
EXTT1=
EXTT2=
EXTT3=
EXTT4=
EXTT5=
EXTT6=
EXTT7=
EXTT8=
EXTT9=
EXTT10=
EXTT11=
EXTT12=
EXTT13=
EXTT14=
EXTT15=
EXTT16=
EXTT17=
PLAYORDER=
